<?xml version="1.0" standalone="no"?>
<!DOCTYPE svg PUBLIC "-//W3C//DTD SVG 20010904//EN"
 "http://www.w3.org/TR/2001/REC-SVG-20010904/DTD/svg10.dtd">
<svg version="1.0" xmlns="http://www.w3.org/2000/svg"
 width="948.000000pt" height="948.000000pt" viewBox="0 0 948.000000 948.000000"
 preserveAspectRatio="xMidYMid meet">
<metadata>
Created by potrace 1.14, written by Peter Selinger 2001-2017
</metadata>
<g transform="translate(0.000000,948.000000) scale(0.100000,-0.100000)"
fill="#000000" stroke="none">
<path d="M3873 7613 c-102 -82 -139 -125 -168 -195 -14 -34 -37 -85 -50 -113
-35 -70 -117 -314 -109 -326 3 -5 11 -9 17 -7 12 2 143 -11 182 -18 21 -4 147
-16 178 -18 26 -1 21 -8 -33 -45 -63 -43 -67 -48 -78 -98 -10 -46 3 -84 63
-178 19 -29 36 -63 39 -76 17 -93 18 -103 9 -94 -5 6 -65 84 -133 175 -68 91
-125 167 -128 170 -2 3 -11 -5 -19 -17 -9 -13 -25 -23 -38 -23 -12 0 -27 -10
-34 -22 -29 -53 -405 -325 -491 -354 -20 -7 -92 -29 -159 -48 -118 -35 -129
-36 -284 -36 l-162 0 -67 -44 c-55 -37 -137 -73 -183 -82 -65 -12 -433 -154
-464 -178 -7 -6 -59 -12 -115 -14 -123 -3 -127 -1 -205 136 -43 76 -57 92 -77
92 -13 0 -24 4 -24 9 0 9 -57 71 -65 71 -5 0 4 -188 10 -219 20 -97 33 -134
81 -236 18 -38 24 -149 11 -195 -2 -8 -9 -35 -16 -60 -7 -25 -35 -77 -62 -117
-27 -39 -49 -74 -49 -77 0 -3 -13 -34 -29 -69 -61 -134 -63 -167 -16 -299 18
-53 39 -134 46 -180 11 -81 14 -248 4 -298 -2 -13 -7 -40 -10 -60 -9 -60 -71
-281 -107 -380 -39 -108 -65 -197 -74 -255 -3 -22 -8 -43 -10 -47 -2 -3 1 -40
6 -82 14 -95 57 -191 126 -281 45 -57 64 -73 111 -92 l56 -23 59 32 c62 33 94
59 139 115 15 17 37 33 49 35 24 3 36 38 125 352 34 118 263 405 361 450 105
49 193 115 244 184 76 103 103 183 107 318 1 62 7 123 13 138 l9 26 52 -20
c73 -29 79 -33 122 -81 62 -67 79 -118 72 -213 -4 -43 -10 -100 -16 -125 -5
-26 -7 -171 -4 -328 3 -156 3 -283 0 -283 -3 0 -36 18 -73 41 -44 27 -82 43
-112 45 -25 3 -64 17 -90 33 -25 15 -79 46 -120 68 -70 36 -80 39 -151 38 -95
-2 -168 -33 -231 -100 -37 -38 -55 -72 -97 -178 -77 -195 -131 -312 -155 -339
-66 -71 -194 -272 -203 -317 -2 -14 -6 -28 -8 -32 -5 -7 -17 -75 -18 -95 0 -6
5 -40 12 -75 7 -35 14 -73 16 -84 2 -11 33 -52 69 -90 36 -39 65 -79 66 -91 0
-11 3 -23 6 -27 3 -3 21 -39 38 -79 18 -40 54 -107 81 -148 27 -41 65 -109 86
-151 64 -131 122 -150 224 -74 72 56 135 161 129 220 -2 19 -6 50 -8 68 -2 17
-23 73 -47 122 -44 89 -45 91 -124 138 -107 64 -219 158 -240 203 -24 50 -29
253 -9 355 8 41 17 85 20 99 6 33 23 90 34 115 5 11 21 49 36 85 14 36 43 93
65 127 21 34 39 66 39 71 0 5 8 16 19 26 17 16 32 2 326 -299 170 -173 312
-315 315 -315 4 0 29 36 56 80 26 44 52 80 56 80 8 0 5 -68 -8 -152 -2 -21
-13 -62 -23 -91 -24 -68 -36 -193 -23 -227 6 -14 53 -79 106 -145 52 -66 125
-167 162 -225 58 -91 159 -221 188 -242 5 -3 14 -4 21 -2 6 3 22 -7 35 -21 18
-19 33 -25 66 -25 38 0 47 5 90 53 69 76 84 115 84 222 0 86 -2 92 -32 136
-18 25 -66 77 -107 116 l-74 70 -96 18 c-134 25 -142 29 -137 62 3 16 8 64 11
108 4 44 8 96 10 115 2 19 7 76 11 125 3 50 8 99 9 110 1 11 3 28 4 38 1 21
41 24 41 2 0 -7 6 -18 13 -22 6 -4 12 -21 13 -38 4 -105 18 -196 37 -239 19
-43 29 -53 75 -73 61 -27 214 -64 286 -68 41 -3 67 -16 170 -83 249 -164 380
-239 462 -263 43 -12 113 -43 154 -67 112 -66 350 -133 485 -137 67 -1 126
-10 180 -25 69 -20 103 -23 250 -23 176 0 245 6 293 24 15 6 28 10 30 10 13
-4 32 1 29 7 -3 4 90 7 206 6 178 0 223 3 282 19 39 10 131 22 205 27 74 5
153 13 175 19 56 14 103 22 85 15 -8 -4 -17 -10 -20 -13 -3 -4 -42 -30 -86
-59 l-82 -53 29 -60 c16 -32 29 -61 29 -64 0 -3 21 -49 46 -102 91 -193 149
-322 158 -350 l7 -21 -3258 0 -3258 0 -3 -23 -3 -24 4700 0 c2585 0 4697 3
4693 6 -4 4 -40 14 -80 24 -60 14 -120 17 -339 17 -260 0 -269 1 -313 23 -41
21 -48 30 -72 92 -33 82 -53 180 -73 348 -3 22 -7 51 -10 65 -2 14 -7 50 -10
80 -3 30 -8 62 -10 70 -3 8 -7 33 -10 55 -2 22 -7 58 -11 80 -3 22 -7 51 -9
65 -18 121 -46 309 -49 325 -2 11 -7 45 -11 75 -8 66 -14 106 -20 140 -2 14
-7 50 -10 80 -4 30 -11 75 -16 100 -5 25 -12 61 -14 80 -21 138 -128 379 -223
498 -90 112 -184 205 -252 247 -76 47 -102 58 -190 80 -36 9 -94 30 -130 47
-36 17 -102 48 -148 69 -58 28 -96 39 -128 39 -26 0 -85 9 -133 21 -47 12 -93
22 -101 24 -8 2 -51 13 -95 25 -52 14 -118 23 -190 25 -60 2 -121 6 -135 9
-14 3 -52 12 -86 20 -33 8 -83 18 -110 21 -27 3 -62 8 -79 10 -16 3 -57 7 -90
10 -33 4 -71 8 -85 10 -92 13 -124 19 -194 36 -43 11 -80 19 -81 17 -2 -2 24
-73 58 -158 101 -258 128 -508 81 -735 l-19 -90 -7 125 c-10 185 -12 202 -53
360 -37 145 -131 390 -202 525 -20 39 -45 88 -57 110 -17 33 -21 58 -20 140 0
97 2 103 48 210 48 110 126 313 126 328 0 5 41 101 91 215 117 264 143 357
135 469 -8 107 -5 97 -52 176 -47 77 -70 94 -259 192 -114 60 -192 85 -403
130 -10 2 -75 18 -147 35 -71 18 -137 33 -145 35 -49 10 -156 39 -225 62 -148
47 -204 126 -275 389 -47 177 -93 267 -165 329 -82 69 -147 87 -327 90 l-146
2 -69 -54z m1093 -1608 c2 -94 5 -98 94 -152 l36 -22 51 24 c67 31 145 29 191
-5 19 -14 30 -30 28 -39 -3 -9 -8 -45 -11 -81 -11 -122 -15 -165 -20 -190 -2
-14 -7 -54 -10 -90 -4 -36 -8 -76 -9 -90 -2 -14 -7 -56 -10 -95 -4 -38 -9 -81
-11 -95 -2 -14 -7 -52 -10 -85 -9 -93 -17 -160 -19 -163 -2 -1 -41 59 -87 135
-46 75 -116 189 -156 252 -39 64 -95 155 -124 203 -59 99 -55 98 -129 12 -35
-41 -60 -58 -111 -79 l-67 -27 -118 48 c-99 41 -165 79 -391 229 -231 154
-270 183 -262 198 6 9 19 22 31 28 11 6 18 7 14 1 -9 -15 122 -96 189 -116 33
-10 91 -40 130 -66 38 -26 98 -56 133 -68 35 -12 90 -41 123 -67 34 -25 66
-46 72 -46 94 -10 164 19 192 78 112 237 149 311 196 380 29 45 56 80 58 77 2
-2 5 -42 7 -89z m2615 -3655 c79 -135 147 -239 169 -260 40 -37 73 -86 126
-187 l32 -62 -169 0 c-93 1 -168 4 -167 7 2 6 -9 63 -17 92 -1 3 -5 21 -9 40
-4 19 -17 73 -28 120 -11 47 -22 96 -25 110 -2 14 -13 59 -23 100 -10 41 -21
89 -24 105 -3 17 -12 56 -21 88 -19 73 -19 74 5 73 14 -1 53 -59 151 -226z"/>
</g>
</svg>
